<mxfile host="app.diagrams.net" modified="2024-04-09T09:33:19.720Z" agent="Mozilla/5.0 (X11; Ubuntu; Linux x86_64; rv:124.0) Gecko/20100101 Firefox/124.0" etag="aMcGQL5wDYbYxKpe8Z4a" version="24.2.3" type="github">
  <diagram name="Page-1" id="fnuQdNeF7kdfR3Fojvs4">
    <mxGraphModel dx="1434" dy="793" grid="1" gridSize="10" guides="1" tooltips="1" connect="1" arrows="1" fold="1" page="1" pageScale="1" pageWidth="850" pageHeight="1100" math="0" shadow="0">
      <root>
        <mxCell id="0" />
        <mxCell id="1" parent="0" />
        <mxCell id="fgZMqX_G8R9OxT6ruX2E-11" style="edgeStyle=orthogonalEdgeStyle;rounded=0;orthogonalLoop=1;jettySize=auto;html=1;exitX=0.5;exitY=1;exitDx=0;exitDy=0;entryX=0.5;entryY=0;entryDx=0;entryDy=0;" edge="1" parent="1" source="fgZMqX_G8R9OxT6ruX2E-1" target="fgZMqX_G8R9OxT6ruX2E-10">
          <mxGeometry relative="1" as="geometry" />
        </mxCell>
        <mxCell id="fgZMqX_G8R9OxT6ruX2E-12" value="memory_en" style="edgeLabel;html=1;align=center;verticalAlign=middle;resizable=0;points=[];" vertex="1" connectable="0" parent="fgZMqX_G8R9OxT6ruX2E-11">
          <mxGeometry x="-0.3333" y="-2" relative="1" as="geometry">
            <mxPoint x="32" as="offset" />
          </mxGeometry>
        </mxCell>
        <mxCell id="fgZMqX_G8R9OxT6ruX2E-1" value="reception process" style="rounded=0;whiteSpace=wrap;html=1;" vertex="1" parent="1">
          <mxGeometry x="120" y="80" width="120" height="80" as="geometry" />
        </mxCell>
        <mxCell id="fgZMqX_G8R9OxT6ruX2E-2" value="" style="endArrow=classic;html=1;rounded=0;" edge="1" parent="1">
          <mxGeometry width="50" height="50" relative="1" as="geometry">
            <mxPoint x="80" y="100" as="sourcePoint" />
            <mxPoint x="120" y="100" as="targetPoint" />
          </mxGeometry>
        </mxCell>
        <mxCell id="fgZMqX_G8R9OxT6ruX2E-3" value="i_emu_busy" style="edgeLabel;html=1;align=center;verticalAlign=middle;resizable=0;points=[];" vertex="1" connectable="0" parent="fgZMqX_G8R9OxT6ruX2E-2">
          <mxGeometry x="-0.3182" y="1" relative="1" as="geometry">
            <mxPoint x="-48" y="-8" as="offset" />
          </mxGeometry>
        </mxCell>
        <mxCell id="fgZMqX_G8R9OxT6ruX2E-4" value="" style="endArrow=classic;html=1;rounded=0;entryX=-0.007;entryY=0.113;entryDx=0;entryDy=0;entryPerimeter=0;" edge="1" parent="1">
          <mxGeometry width="50" height="50" relative="1" as="geometry">
            <mxPoint x="80" y="110" as="sourcePoint" />
            <mxPoint x="120.00000000000009" y="110.04000000000002" as="targetPoint" />
          </mxGeometry>
        </mxCell>
        <mxCell id="fgZMqX_G8R9OxT6ruX2E-5" value="i_req" style="edgeLabel;html=1;align=center;verticalAlign=middle;resizable=0;points=[];" vertex="1" connectable="0" parent="fgZMqX_G8R9OxT6ruX2E-4">
          <mxGeometry x="-0.3182" y="1" relative="1" as="geometry">
            <mxPoint x="-48" y="-8" as="offset" />
          </mxGeometry>
        </mxCell>
        <mxCell id="fgZMqX_G8R9OxT6ruX2E-6" value="" style="endArrow=classic;html=1;rounded=0;" edge="1" parent="1">
          <mxGeometry width="50" height="50" relative="1" as="geometry">
            <mxPoint x="120" y="119.8" as="sourcePoint" />
            <mxPoint x="80" y="119.8" as="targetPoint" />
          </mxGeometry>
        </mxCell>
        <mxCell id="fgZMqX_G8R9OxT6ruX2E-7" value="o_ack" style="edgeLabel;html=1;align=center;verticalAlign=middle;resizable=0;points=[];" vertex="1" connectable="0" parent="fgZMqX_G8R9OxT6ruX2E-6">
          <mxGeometry x="-0.3182" y="1" relative="1" as="geometry">
            <mxPoint x="-48" y="-8" as="offset" />
          </mxGeometry>
        </mxCell>
        <mxCell id="fgZMqX_G8R9OxT6ruX2E-8" value="" style="endArrow=classic;html=1;rounded=0;entryX=-0.007;entryY=0.113;entryDx=0;entryDy=0;entryPerimeter=0;" edge="1" parent="1">
          <mxGeometry width="50" height="50" relative="1" as="geometry">
            <mxPoint x="80" y="130" as="sourcePoint" />
            <mxPoint x="120.00000000000009" y="130.04000000000002" as="targetPoint" />
          </mxGeometry>
        </mxCell>
        <mxCell id="fgZMqX_G8R9OxT6ruX2E-9" value="i_spike_flag" style="edgeLabel;html=1;align=center;verticalAlign=middle;resizable=0;points=[];" vertex="1" connectable="0" parent="fgZMqX_G8R9OxT6ruX2E-8">
          <mxGeometry x="-0.3182" y="1" relative="1" as="geometry">
            <mxPoint x="-48" y="1" as="offset" />
          </mxGeometry>
        </mxCell>
        <mxCell id="fgZMqX_G8R9OxT6ruX2E-10" value="synaptic memory" style="rounded=0;whiteSpace=wrap;html=1;" vertex="1" parent="1">
          <mxGeometry x="120" y="190" width="120" height="60" as="geometry" />
        </mxCell>
        <mxCell id="fgZMqX_G8R9OxT6ruX2E-13" value="" style="endArrow=classic;html=1;rounded=0;entryX=0;entryY=0.5;entryDx=0;entryDy=0;" edge="1" parent="1" target="fgZMqX_G8R9OxT6ruX2E-10">
          <mxGeometry width="50" height="50" relative="1" as="geometry">
            <mxPoint x="80" y="220" as="sourcePoint" />
            <mxPoint x="80" y="190" as="targetPoint" />
          </mxGeometry>
        </mxCell>
        <mxCell id="fgZMqX_G8R9OxT6ruX2E-14" value="i_aer" style="edgeLabel;html=1;align=center;verticalAlign=middle;resizable=0;points=[];" vertex="1" connectable="0" parent="fgZMqX_G8R9OxT6ruX2E-13">
          <mxGeometry x="-0.75" y="2" relative="1" as="geometry">
            <mxPoint x="-5" y="-8" as="offset" />
          </mxGeometry>
        </mxCell>
        <mxCell id="fgZMqX_G8R9OxT6ruX2E-16" value="&lt;div&gt;A&lt;/div&gt;&lt;div&gt;R&lt;/div&gt;&lt;div&gt;B&lt;/div&gt;&lt;div&gt;I&lt;/div&gt;&lt;div&gt;T&lt;/div&gt;&lt;div&gt;E&lt;/div&gt;&lt;div&gt;R&lt;br&gt;&lt;/div&gt;" style="rounded=0;whiteSpace=wrap;html=1;" vertex="1" parent="1">
          <mxGeometry x="390" y="150" width="30" height="100" as="geometry" />
        </mxCell>
        <mxCell id="fgZMqX_G8R9OxT6ruX2E-17" value="neuron 0" style="rounded=0;whiteSpace=wrap;html=1;" vertex="1" parent="1">
          <mxGeometry x="300" y="150" width="70" height="20" as="geometry" />
        </mxCell>
        <mxCell id="fgZMqX_G8R9OxT6ruX2E-18" value="neuron N-1" style="rounded=0;whiteSpace=wrap;html=1;" vertex="1" parent="1">
          <mxGeometry x="300" y="230" width="70" height="20" as="geometry" />
        </mxCell>
        <mxCell id="fgZMqX_G8R9OxT6ruX2E-19" value="" style="endArrow=none;dashed=1;html=1;dashPattern=1 3;strokeWidth=2;rounded=0;entryX=0.5;entryY=1;entryDx=0;entryDy=0;exitX=0.5;exitY=0;exitDx=0;exitDy=0;" edge="1" parent="1" source="fgZMqX_G8R9OxT6ruX2E-18" target="fgZMqX_G8R9OxT6ruX2E-17">
          <mxGeometry width="50" height="50" relative="1" as="geometry">
            <mxPoint x="370" y="200" as="sourcePoint" />
            <mxPoint x="420" y="150" as="targetPoint" />
          </mxGeometry>
        </mxCell>
        <mxCell id="fgZMqX_G8R9OxT6ruX2E-20" value="" style="endArrow=classic;html=1;rounded=0;" edge="1" parent="1">
          <mxGeometry width="50" height="50" relative="1" as="geometry">
            <mxPoint x="310" y="100" as="sourcePoint" />
            <mxPoint x="310" y="150" as="targetPoint" />
          </mxGeometry>
        </mxCell>
        <mxCell id="fgZMqX_G8R9OxT6ruX2E-26" value="i_start_emu" style="edgeLabel;html=1;align=center;verticalAlign=middle;resizable=0;points=[];" vertex="1" connectable="0" parent="fgZMqX_G8R9OxT6ruX2E-20">
          <mxGeometry x="-0.672" y="2" relative="1" as="geometry">
            <mxPoint x="28" y="-8" as="offset" />
          </mxGeometry>
        </mxCell>
        <mxCell id="fgZMqX_G8R9OxT6ruX2E-21" value="" style="endArrow=classic;html=1;rounded=0;" edge="1" parent="1">
          <mxGeometry width="50" height="50" relative="1" as="geometry">
            <mxPoint x="310" y="210" as="sourcePoint" />
            <mxPoint x="310" y="230" as="targetPoint" />
          </mxGeometry>
        </mxCell>
        <mxCell id="fgZMqX_G8R9OxT6ruX2E-22" value="" style="endArrow=none;html=1;rounded=0;" edge="1" parent="1">
          <mxGeometry width="50" height="50" relative="1" as="geometry">
            <mxPoint x="310" y="210" as="sourcePoint" />
            <mxPoint x="290" y="210" as="targetPoint" />
          </mxGeometry>
        </mxCell>
        <mxCell id="fgZMqX_G8R9OxT6ruX2E-23" value="" style="endArrow=none;html=1;rounded=0;" edge="1" parent="1">
          <mxGeometry width="50" height="50" relative="1" as="geometry">
            <mxPoint x="290" y="130" as="sourcePoint" />
            <mxPoint x="290" y="210" as="targetPoint" />
          </mxGeometry>
        </mxCell>
        <mxCell id="fgZMqX_G8R9OxT6ruX2E-24" value="" style="endArrow=none;html=1;rounded=0;" edge="1" parent="1">
          <mxGeometry width="50" height="50" relative="1" as="geometry">
            <mxPoint x="310" y="130" as="sourcePoint" />
            <mxPoint x="290" y="130" as="targetPoint" />
          </mxGeometry>
        </mxCell>
        <mxCell id="fgZMqX_G8R9OxT6ruX2E-27" value="" style="endArrow=classic;html=1;rounded=0;" edge="1" parent="1">
          <mxGeometry width="50" height="50" relative="1" as="geometry">
            <mxPoint x="280" y="150" as="sourcePoint" />
            <mxPoint x="300" y="150" as="targetPoint" />
          </mxGeometry>
        </mxCell>
        <mxCell id="fgZMqX_G8R9OxT6ruX2E-28" value="" style="endArrow=classic;html=1;rounded=0;" edge="1" parent="1">
          <mxGeometry width="50" height="50" relative="1" as="geometry">
            <mxPoint x="280" y="230" as="sourcePoint" />
            <mxPoint x="300" y="230" as="targetPoint" />
          </mxGeometry>
        </mxCell>
        <mxCell id="fgZMqX_G8R9OxT6ruX2E-29" value="" style="endArrow=none;html=1;rounded=0;" edge="1" parent="1">
          <mxGeometry width="50" height="50" relative="1" as="geometry">
            <mxPoint x="280" y="150" as="sourcePoint" />
            <mxPoint x="280" y="230" as="targetPoint" />
          </mxGeometry>
        </mxCell>
        <mxCell id="fgZMqX_G8R9OxT6ruX2E-30" value="" style="endArrow=none;html=1;rounded=0;" edge="1" parent="1">
          <mxGeometry width="50" height="50" relative="1" as="geometry">
            <mxPoint x="280" y="110" as="sourcePoint" />
            <mxPoint x="280" y="150" as="targetPoint" />
          </mxGeometry>
        </mxCell>
        <mxCell id="fgZMqX_G8R9OxT6ruX2E-31" value="" style="endArrow=none;html=1;rounded=0;" edge="1" parent="1">
          <mxGeometry width="50" height="50" relative="1" as="geometry">
            <mxPoint x="280" y="110" as="sourcePoint" />
            <mxPoint x="240" y="110" as="targetPoint" />
          </mxGeometry>
        </mxCell>
        <mxCell id="fgZMqX_G8R9OxT6ruX2E-32" value="spike_flag" style="edgeLabel;html=1;align=center;verticalAlign=middle;resizable=0;points=[];" vertex="1" connectable="0" parent="fgZMqX_G8R9OxT6ruX2E-31">
          <mxGeometry x="0.18" relative="1" as="geometry">
            <mxPoint x="14" y="-10" as="offset" />
          </mxGeometry>
        </mxCell>
        <mxCell id="fgZMqX_G8R9OxT6ruX2E-33" value="" style="endArrow=classic;html=1;rounded=0;" edge="1" parent="1">
          <mxGeometry width="50" height="50" relative="1" as="geometry">
            <mxPoint x="270" y="170" as="sourcePoint" />
            <mxPoint x="300" y="170" as="targetPoint" />
          </mxGeometry>
        </mxCell>
        <mxCell id="fgZMqX_G8R9OxT6ruX2E-34" value="" style="endArrow=classic;html=1;rounded=0;" edge="1" parent="1">
          <mxGeometry width="50" height="50" relative="1" as="geometry">
            <mxPoint x="270" y="249.6" as="sourcePoint" />
            <mxPoint x="300" y="249.6" as="targetPoint" />
          </mxGeometry>
        </mxCell>
        <mxCell id="fgZMqX_G8R9OxT6ruX2E-35" value="" style="endArrow=none;html=1;rounded=0;" edge="1" parent="1">
          <mxGeometry width="50" height="50" relative="1" as="geometry">
            <mxPoint x="270" y="170" as="sourcePoint" />
            <mxPoint x="270" y="250" as="targetPoint" />
          </mxGeometry>
        </mxCell>
        <mxCell id="fgZMqX_G8R9OxT6ruX2E-36" value="" style="endArrow=none;html=1;rounded=0;" edge="1" parent="1">
          <mxGeometry width="50" height="50" relative="1" as="geometry">
            <mxPoint x="270" y="220" as="sourcePoint" />
            <mxPoint x="240" y="219.8" as="targetPoint" />
          </mxGeometry>
        </mxCell>
        <mxCell id="fgZMqX_G8R9OxT6ruX2E-37" value="weight" style="edgeLabel;html=1;align=center;verticalAlign=middle;resizable=0;points=[];" vertex="1" connectable="0" parent="fgZMqX_G8R9OxT6ruX2E-36">
          <mxGeometry x="0.18" relative="1" as="geometry">
            <mxPoint x="-2" y="-10" as="offset" />
          </mxGeometry>
        </mxCell>
        <mxCell id="fgZMqX_G8R9OxT6ruX2E-38" value="" style="endArrow=classic;html=1;rounded=0;" edge="1" parent="1">
          <mxGeometry width="50" height="50" relative="1" as="geometry">
            <mxPoint x="370" y="160" as="sourcePoint" />
            <mxPoint x="390" y="160" as="targetPoint" />
          </mxGeometry>
        </mxCell>
        <mxCell id="fgZMqX_G8R9OxT6ruX2E-39" value="" style="endArrow=classic;html=1;rounded=0;" edge="1" parent="1">
          <mxGeometry width="50" height="50" relative="1" as="geometry">
            <mxPoint x="370" y="239.8" as="sourcePoint" />
            <mxPoint x="390" y="239.8" as="targetPoint" />
          </mxGeometry>
        </mxCell>
        <mxCell id="fgZMqX_G8R9OxT6ruX2E-40" value="" style="endArrow=classic;html=1;rounded=0;" edge="1" parent="1">
          <mxGeometry width="50" height="50" relative="1" as="geometry">
            <mxPoint x="420" y="190" as="sourcePoint" />
            <mxPoint x="450" y="190" as="targetPoint" />
          </mxGeometry>
        </mxCell>
        <mxCell id="fgZMqX_G8R9OxT6ruX2E-41" value="o_aer" style="edgeLabel;html=1;align=center;verticalAlign=middle;resizable=0;points=[];" vertex="1" connectable="0" parent="fgZMqX_G8R9OxT6ruX2E-40">
          <mxGeometry x="0.5733" relative="1" as="geometry">
            <mxPoint x="-4" y="-10" as="offset" />
          </mxGeometry>
        </mxCell>
        <mxCell id="fgZMqX_G8R9OxT6ruX2E-42" value="" style="endArrow=classic;html=1;rounded=0;" edge="1" parent="1">
          <mxGeometry width="50" height="50" relative="1" as="geometry">
            <mxPoint x="420" y="210" as="sourcePoint" />
            <mxPoint x="450" y="210" as="targetPoint" />
          </mxGeometry>
        </mxCell>
        <mxCell id="fgZMqX_G8R9OxT6ruX2E-43" value="o_spike_flag" style="edgeLabel;html=1;align=center;verticalAlign=middle;resizable=0;points=[];" vertex="1" connectable="0" parent="fgZMqX_G8R9OxT6ruX2E-42">
          <mxGeometry x="0.5733" relative="1" as="geometry">
            <mxPoint x="16" y="-10" as="offset" />
          </mxGeometry>
        </mxCell>
        <mxCell id="fgZMqX_G8R9OxT6ruX2E-44" value="transmission process" style="rounded=0;whiteSpace=wrap;html=1;" vertex="1" parent="1">
          <mxGeometry x="390" y="80" width="90" height="40" as="geometry" />
        </mxCell>
        <mxCell id="fgZMqX_G8R9OxT6ruX2E-45" value="" style="endArrow=classic;html=1;rounded=0;" edge="1" parent="1">
          <mxGeometry width="50" height="50" relative="1" as="geometry">
            <mxPoint x="404.8" y="120" as="sourcePoint" />
            <mxPoint x="404.8" y="150" as="targetPoint" />
            <Array as="points" />
          </mxGeometry>
        </mxCell>
        <mxCell id="fgZMqX_G8R9OxT6ruX2E-46" value="start_arbiter" style="edgeLabel;html=1;align=center;verticalAlign=middle;resizable=0;points=[];" vertex="1" connectable="0" parent="fgZMqX_G8R9OxT6ruX2E-45">
          <mxGeometry x="-0.42" y="2" relative="1" as="geometry">
            <mxPoint x="38" as="offset" />
          </mxGeometry>
        </mxCell>
        <mxCell id="fgZMqX_G8R9OxT6ruX2E-49" value="" style="endArrow=classic;html=1;rounded=0;" edge="1" parent="1">
          <mxGeometry width="50" height="50" relative="1" as="geometry">
            <mxPoint x="480" y="90" as="sourcePoint" />
            <mxPoint x="520" y="90" as="targetPoint" />
          </mxGeometry>
        </mxCell>
        <mxCell id="fgZMqX_G8R9OxT6ruX2E-50" value="o_emu_busy" style="edgeLabel;html=1;align=center;verticalAlign=middle;resizable=0;points=[];" vertex="1" connectable="0" parent="fgZMqX_G8R9OxT6ruX2E-49">
          <mxGeometry x="0.38" y="-1" relative="1" as="geometry">
            <mxPoint x="42" y="-11" as="offset" />
          </mxGeometry>
        </mxCell>
        <mxCell id="fgZMqX_G8R9OxT6ruX2E-51" value="" style="endArrow=classic;html=1;rounded=0;" edge="1" parent="1">
          <mxGeometry width="50" height="50" relative="1" as="geometry">
            <mxPoint x="480" y="99.8" as="sourcePoint" />
            <mxPoint x="520" y="99.8" as="targetPoint" />
          </mxGeometry>
        </mxCell>
        <mxCell id="fgZMqX_G8R9OxT6ruX2E-52" value="o_req" style="edgeLabel;html=1;align=center;verticalAlign=middle;resizable=0;points=[];" vertex="1" connectable="0" parent="fgZMqX_G8R9OxT6ruX2E-51">
          <mxGeometry x="0.38" y="-1" relative="1" as="geometry">
            <mxPoint x="32" y="-1" as="offset" />
          </mxGeometry>
        </mxCell>
        <mxCell id="fgZMqX_G8R9OxT6ruX2E-53" value="" style="endArrow=classic;html=1;rounded=0;" edge="1" parent="1">
          <mxGeometry width="50" height="50" relative="1" as="geometry">
            <mxPoint x="520" y="110" as="sourcePoint" />
            <mxPoint x="480" y="110.4" as="targetPoint" />
          </mxGeometry>
        </mxCell>
        <mxCell id="fgZMqX_G8R9OxT6ruX2E-54" value="i_ack" style="edgeLabel;html=1;align=center;verticalAlign=middle;resizable=0;points=[];" vertex="1" connectable="0" parent="fgZMqX_G8R9OxT6ruX2E-53">
          <mxGeometry x="0.38" y="-1" relative="1" as="geometry">
            <mxPoint x="41" y="11" as="offset" />
          </mxGeometry>
        </mxCell>
      </root>
    </mxGraphModel>
  </diagram>
</mxfile>
